PathFileType	4	(X/Y/Z)	C:/Users/beibeiliu/ov580/test_trc/User3\sequence.7_training_dense_left.trc
DataRate	CameraRate	NumFrames	NumMarkers	Units	OrigDataRate	OrigDataStartFrame	OrigNumFrames
120	120	21	19	mm	120	51	200
Frame#	Time	ThumbCMC			ThumbMCP			ThumbIP			ThumbTip			IndexMCP			IndexPIP			IndexTip			MiddleMCP			MiddlePIP			MiddleTip			RingMCP			RingPIP			RingTip			PinkyMCP			PinkyPIP			PinkyTip			BackHand1			BackHand2			BackHand3	
		X0	Y0	Z0	X1	Y1	Z1	X2	Y2	Z2	X3	Y3	Z3	X4	Y4	Z4	X5	Y5	Z5	X6	Y6	Z6	X7	Y7	Z7	X8	Y8	Z8	X9	Y9	Z9	X10	Y10	Z10	X11	Y11	Z11	X12	Y12	Z12	X13	Y13	Z13	X14	Y14	Z14	X15	Y15	Z15	X16	Y16	Z16	X17	Y17	Z17	X18	Y18	Z18	
50	0.416667	-90.3515	-0.467657	6.52622	-76.6674	-10.9924	-22.1457	-67.2603	-20.1917	-47.2602	-63.6335	-29.291	-71.2483	-105.572	36.2058	-60.9646	-103.789	33.6812	-94.4059	-97.9473	18.102	-114.7	-133.589	39.8559	-66.3648	-132.453	35.7044	-98.6616	-132.5	13.6072	-123.78	-152.47	18.5513	-62.0292	-152.541	-10.1976	-81.168	-141.063	-37.6814	-64.7279	-166	-1.98522	-51.5253	-156.454	-26.8086	-51.2826	-141.327	-28.3499	-25.4406	-153.151	30.2599	-4.8606	-152.641	22.8552	22.4111	-120.551	30.0226	6.44836	
51	0.425	-90.7849	-1.33046	6.56955	-74.5325	-13.0604	-19.8834	-68.5461	-21.0451	-47.1678	-65.922	-29.4921	-73.9611	-108.548	36.9152	-63.3144	-103.005	32.6408	-93.0741	-101.443	14.9655	-117.077	-133.812	39.252	-65.7895	-130.3	36.7889	-95.7562	-133.219	9.23567	-126.442	-151.014	17.5526	-63.1019	-149.352	-9.59241	-81.5753	-144.218	-36.4253	-65.9304	-169.694	-2.03019	-49.2907	-153.138	-27.6102	-49.4401	-140.406	-25.3567	-24.6416	-152.557	29.5146	-6.63697	-154.726	20.0694	23.231	-119.09	30.4331	6.0859	
52	0.433333	-95.5886	0.503017	3.68278	-79.6897	-11.5957	-18.8621	-66.3692	-19.4115	-52.4149	-68.0777	-28.8356	-73.1437	-112.907	36.4394	-62.3515	-106.916	32.8317	-92.2485	-104.967	13.9894	-116.024	-137.675	39.9377	-69.3233	-132.589	35.8504	-96.6119	-129.57	9.73028	-124.008	-157.455	15.0288	-60.6072	-151.243	-10.2159	-80.3441	-143.378	-38.2395	-63.0828	-169.698	-4.34859	-49.389	-153.815	-28.6654	-48.2059	-142.212	-29.3364	-18.7179	-154.145	27.7745	-7.82899	-156.625	19.9381	26.2041	-120.912	30.2865	4.2798	
53	0.441667	-93.7373	-2.31134	6.4971	-77.7306	-12.0302	-23.3503	-66.8475	-21.208	-51.0116	-69.6139	-29.8967	-70.6354	-112.772	34.4217	-61.3788	-105.981	29.9857	-92.7245	-102.55	14.1623	-113.278	-133.82	37.7756	-68.485	-133.845	32.0128	-99.6502	-133.006	7.32998	-123.866	-152.63	13.7172	-63.0545	-153.335	-11.7219	-79.1156	-142.636	-38.524	-65.9062	-167.716	-3.64786	-49.5729	-153.506	-29.0571	-49.8577	-142.179	-32.1891	-22.6088	-157.932	26.8744	-2.86324	-155.364	19.0807	24.4439	-120.358	28.5868	4.4402	
54	0.45	-94.1695	-2.84731	2.62369	-80.3114	-14.2901	-20.3223	-68.2712	-22.9521	-48.9995	-70.4147	-31.8143	-69.6718	-113.687	31.9579	-62.2549	-106.544	26.8528	-95.3093	-103.729	11.4458	-113.72	-139.898	34.7123	-66.2904	-134.603	28.2725	-99.2684	-132.333	4.15795	-124.418	-158.272	10.0119	-60.8346	-155.889	-17.6321	-78.3693	-143.235	-41.1241	-63.978	-168.631	-8.70439	-50.7884	-155.618	-32.3587	-49.538	-143.435	-32.3183	-22.7923	-158.482	24.7796	-4.88013	-157.539	13.5865	25.3388	-121.626	23.6699	5.65019	
55	0.458333	-97.4667	-4.9518	3.67966	-79.6189	-15.8339	-22.8501	-72.2021	-24.2508	-48.2763	-67.4688	-34.1001	-72.0934	-115.981	30.1445	-60.8076	-109.187	25.1026	-92.7852	-105.756	8.53042	-114.87	-138.119	33.1175	-66.1907	-134.529	27.8678	-99.2807	-135.876	5.08999	-122.056	-155.883	10.4433	-59.7213	-154.947	-20.3011	-79.609	-144.22	-43.6666	-64.8362	-171.645	-9.60433	-50.095	-157.245	-32.4539	-51.9082	-145.492	-34.968	-19.6416	-155.96	22.1661	-5.00756	-154.623	14.7641	22.9839	-123.737	23.8351	8.76545	
56	0.466667	-96.9659	-3.98197	1.84356	-79.8585	-15.7585	-22.4053	-69.272	-24.4309	-48.9897	-67.9861	-34.4646	-69.7647	-115.345	30.0056	-63.6418	-108.486	24.2455	-92.3534	-104.978	8.56885	-113.464	-140.519	32.727	-68.536	-139.382	25.07	-100.243	-138.932	0.0544576	-124.328	-158.566	8.5592	-59.885	-156.577	-20.9348	-79.2405	-142.516	-45.1908	-63.9902	-171.88	-7.89739	-47.5659	-159.536	-33.0929	-52.6286	-146.492	-37.4582	-22.234	-162.259	22.7719	-8.7201	-159.581	14.159	25.8109	-124.066	22.7362	3.74399	
57	0.475	-100.167	-5.82958	5.34974	-84.7538	-15.7664	-20.4346	-76.2364	-24.3008	-50.5043	-74.392	-33.2951	-70.44	-116.813	28.4835	-66.1665	-113.698	23.1781	-94.054	-108.687	5.73658	-115.614	-143.997	31.7594	-68.0171	-142.174	26.5673	-96.2818	-139.808	-1.60047	-124.669	-159.731	6.5583	-64.607	-156.223	-19.5411	-80.9406	-146.08	-43.8339	-66.413	-174.395	-11.059	-48.322	-160.453	-38.0611	-49.2903	-147.27	-40.8608	-22.8761	-162.893	18.8758	-6.27123	-156.584	14.076	23.6434	-127.43	22.0995	6.46374	
58	0.483333	-96.8674	-6.32527	5.25792	-85.7173	-16.839	-21.9681	-75.0842	-24.734	-47.3544	-74.784	-33.3949	-72.7542	-119.092	28.0339	-63.2574	-114.782	23.7719	-92.6337	-111.432	3.95866	-118.276	-145.187	29.8702	-65.6794	-142.325	22.967	-100.793	-139.44	-1.47997	-125.626	-162.202	7.13908	-61.0709	-158.899	-20.5839	-79.6717	-147.62	-44.3021	-66.437	-175.774	-12.3903	-48.8672	-161.18	-36.0818	-51.1001	-147.173	-39.0356	-21.6752	-159.53	20.52	-8.84912	-159.2	11.5505	24.5719	-128.953	22.0623	4.77637	
59	0.491667	-97.459	-7.35754	5.64088	-86.1474	-17.8948	-22.4653	-76.8162	-25.9016	-48.7149	-78.5499	-34.5034	-73.1685	-117.775	28.2416	-67.3898	-111.207	21.6484	-96.1229	-112.798	6.45322	-114.873	-147.015	30.1417	-69.0732	-142.994	25.0624	-97.6851	-143.942	-0.658083	-123.298	-163.506	5.11205	-64.2241	-157.441	-21.8284	-79.9853	-147.56	-48.5447	-61.9361	-176.466	-12.0323	-46.7394	-161.187	-39.1961	-47.9571	-150.108	-38.5326	-24.2739	-165.301	18.0386	-4.13672	-162.133	11.9843	24.1813	-126.266	22.0836	4.61542	
60	0.5	-98.9588	-6.31727	5.26192	-87.8906	-16.8537	-21.9769	-76.5893	-25.8851	-52.758	-79.2552	-33.5873	-72.4489	-122.342	26.6418	-62.383	-117.597	23.0381	-93.5545	-115.911	3.30367	-118.936	-144.772	29.9872	-68.0038	-145.835	24.1971	-96.8631	-140.642	-2.29581	-126.372	-165.388	5.00792	-63.2638	-162.575	-22.5112	-79.5333	-149.155	-46.295	-65.1893	-176.118	-12.5806	-48.1757	-165.381	-38.9785	-49.6495	-151.936	-43.0111	-23.2832	-164.228	19.0772	-8.89009	-160.812	10.7215	25.1187	-133.215	19.428	4.41437	
61	0.508333	-100.138	-6.35226	3.59794	-86.7802	-17.8179	-22.0794	-76.2788	-26.6299	-48.6472	-76.3723	-35.2158	-74.103	-126.547	26.2966	-63.2394	-120.326	21.9188	-94.998	-113.688	4.15034	-117.285	-147.9	28.7503	-69.7523	-148.318	21.3804	-100.487	-143.548	-3.25024	-125.432	-169.724	3.09899	-61.4808	-162.913	-22.3722	-80.0118	-152.629	-49.085	-61.7465	-180.709	-16.4786	-49.756	-164.886	-40.3352	-49.0309	-151.892	-39.7145	-23.5407	-167.921	17.3766	-9.14321	-163.544	10.127	21.6695	-129.846	21.6773	6.27291	
62	0.516667	-101.946	-6.79452	4.85461	-88.5315	-17.2459	-24.7467	-79.3944	-25.9693	-46.8432	-79.3516	-34.1525	-73.9249	-126.051	26.8647	-66.1074	-120.155	22.7331	-93.5558	-118.519	2.26981	-118.031	-149.608	28.2784	-67.3239	-146.99	21.6338	-100.999	-147.931	-2.36856	-124.457	-169.858	2.4209	-63.1235	-163.243	-21.1766	-80.3361	-151.664	-48.9244	-60.4811	-180.755	-15.2024	-48.2409	-166.649	-40.5225	-48.5434	-152.81	-41.3718	-20.0841	-166.283	18.2443	-3.52931	-162.115	10.0502	23.1176	-132.865	20.2555	5.32198	
63	0.525	-104.202	-6.1932	3.28984	-89.4947	-16.4939	-23.3657	-80.6692	-24.6169	-48.8109	-81.0546	-33.8161	-73.622	-126.539	26.9291	-65.364	-121.215	21.4729	-96.3428	-117.475	2.78312	-118.347	-152.088	28.8371	-69.368	-149.001	23.2772	-98.5433	-144.845	-2.91347	-124.439	-169.364	4.59997	-60.3966	-163.379	-22.2695	-79.4875	-154.085	-47.5493	-61.3742	-180.118	-11.7046	-47.1121	-168.692	-39.732	-48.8584	-151.591	-38.4157	-22.3455	-165.915	18.5711	-5.60352	-168.037	10.9533	25.6485	-133.305	23.0554	3.35473	
64	0.533333	-107.664	-4.3337	1.37459	-90.1009	-17.0733	-21.3216	-78.7282	-24.5574	-53.247	-82.063	-34.1447	-72.7597	-128.417	28.1207	-68.1718	-122.118	21.6288	-98.3115	-117.002	5.02762	-116.461	-150.573	30.5345	-69.2371	-151.069	22.0693	-101.753	-148.57	-3.65397	-125.612	-172.558	4.19272	-64.1656	-166.388	-21.6528	-80.0123	-152.519	-46.5106	-61.0615	-179.314	-12.4666	-48.8585	-167.618	-38.9655	-49.4925	-157.2	-41.1401	-21.1012	-169.364	19.3383	-6.5468	-166.89	10.7898	22.9297	-134.184	21.0437	2.96281	
65	0.541667	-107.859	-4.16617	1.32511	-91.6075	-14.8685	-26.9919	-81.8679	-25.0686	-48.0765	-81.3136	-33.0414	-72.9545	-128.543	28.5512	-63.5019	-124.826	22.074	-97.0153	-120.664	3.50668	-119.808	-151.809	30.827	-69.6365	-154.739	22.5711	-101.046	-153.159	-0.225033	-123.66	-168.873	4.69213	-64.9208	-165.568	-22.9846	-79.5169	-155.582	-46.9071	-60.5781	-180.017	-14.1655	-51.2609	-170.988	-39.5343	-48.4166	-153.493	-37.9165	-23.3605	-170.074	18.3626	-5.28426	-171.243	13.7379	21.0273	-138.543	22.6739	4.41518	
66	0.55	-106.695	-4.51809	1.36313	-89.9483	-15.0177	-23.0295	-81.6292	-23.9624	-50.6975	-79.7867	-33.3081	-74.1875	-128.505	27.8688	-63.2107	-124.171	22.9301	-95.3828	-120.488	3.98254	-118.242	-155.452	30.4916	-69.9062	-151.863	26.0858	-97.957	-152.084	-2.52409	-125.056	-171.729	3.90904	-64.6322	-170.25	-23.0776	-80.0341	-156.523	-46.0133	-64.0366	-184.782	-12.2273	-48.3628	-170.599	-37.2106	-50.585	-160.124	-40.5397	-22.1031	-170.297	19.6417	-5.00184	-170.644	11.4076	20.8379	-138.008	22.8855	4.94104	
67	0.558333	-106.026	-3.90348	1.20178	-91.5922	-15.7852	-22.9205	-80.1308	-23.7751	-51.5593	-84.8004	-32.6173	-75.4648	-132.196	26.5227	-64.6471	-125.38	21.8256	-94.3579	-121.343	4.77662	-117.548	-156.698	28.2529	-68.3728	-155.565	22.778	-100.319	-154.686	-1.27485	-123.965	-172.673	3.93119	-63.7464	-168.4	-24.8385	-79.0854	-155.711	-47.0246	-61.3665	-184.375	-15.9224	-51.2264	-170.966	-40.132	-48.5787	-158	-37.2121	-20.9792	-172.179	20.0816	-5.48508	-169.263	11.2169	19.9078	-138.21	21.7991	3.7119	
68	0.566667	-105.93	-4.97763	2.58914	-90.2969	-16.3343	-22.8502	-83.3633	-23.5735	-48.1677	-81.9192	-33.5774	-73.8105	-130.156	26.7784	-67.396	-125.89	20.5106	-99.0036	-125.766	3.50786	-118.019	-156.714	29.2533	-68.7411	-156.717	23.2101	-98.0755	-151.56	-0.644317	-123.782	-170.868	5.23055	-62.328	-168.626	-22.783	-79.4565	-159.842	-47.8464	-62.5491	-186.565	-15.2551	-50.1044	-169.938	-39.0142	-50.0396	-156.538	-38.3571	-24.2929	-171.273	20.0636	-9.08624	-171.853	12.8509	21.8371	-139.458	20.7911	2.40825	
69	0.575	-109.509	-5.87188	3.49411	-92.6362	-15.7068	-25.1648	-81.5887	-23.3199	-50.6157	-80.6673	-33.5219	-72.782	-126.614	27.3222	-67.1696	-125.49	19.9615	-98.1708	-124.853	2.63319	-117.732	-156.528	28.7679	-71.6224	-156.498	23.3715	-98.7307	-151.653	-2.99371	-125.611	-173.847	2.94796	-63.0825	-171.229	-21.9248	-79.7578	-156.568	-47.0817	-63.353	-185.325	-15.318	-51.3684	-169.402	-38.6644	-50.7075	-158.834	-41.9072	-24.3152	-172.581	19.5615	-4.91794	-171.221	10.0732	25.2676	-138.727	20.3197	3.81079	
70	0.583333	-106.37	-5.80077	2.61056	-96.0113	-16.0137	-23.7566	-82.207	-24.2827	-50.8297	-81.7733	-32.5672	-74.5735	-127.139	27.4705	-67.2977	-122.504	23.0419	-94.0134	-124.998	1.14174	-119.712	-152.7	28.2233	-69.0289	-155.453	22.5312	-99.0844	-148.381	-1.83894	-124.493	-174.187	3.57054	-62.9053	-166.715	-25.3421	-79.7724	-155.177	-49.7704	-59.1017	-185.154	-16.9957	-51.9912	-173.568	-41.0097	-49.4017	-156.136	-38.1023	-21.7756	-173.713	19.2807	-8.0664	-166.321	10.5579	22.9243	-137.999	19.9539	4.00791	
